<svg width="32" height="32" viewBox="0 0 32 32" fill="none" xmlns="http://www.w3.org/2000/svg">
<g clip-path="url(#clip0_7921_34531)">
<path fill-rule="evenodd" clip-rule="evenodd" d="M30.031 14.5205C32.2579 11.5642 29.8974 8.5105 29.0001 7.49976H3.0001C2.07116 8.55713 -0.469154 11.8413 2.30856 14.9199C2.1866 14.7775 2.08197 14.6444 1.97009 14.5C6.17008 17.02 9.79009 18.3899 13.2901 18.8401C14.1301 18.95 15.0501 19 16.0301 19C20.3701 18.95 24.7001 17.5601 30.0501 14.48C30.0444 14.4915 30.0386 14.5063 30.031 14.5205Z" fill="#89CBFA"/>
<path fill-rule="evenodd" clip-rule="evenodd" d="M29 7.5C27.44 8.69 24.95 10.18 21.69 11.11C21.64 11.13 21.59 11.14 21.54 11.16C19.88 11.62 18.04 11.92 16.02 11.92H15.98C13.98 11.92 12.14 11.63 10.5 11.17C10.44 11.15 10.38 11.13 10.32 11.11C7.05 10.18 4.56 8.7 3 7.5L16.01 0L29 7.5Z" fill="#B2DFFF"/>
<path fill-rule="evenodd" clip-rule="evenodd" d="M1.00391 22.0039C5.32649 24.623 9.88592 26.4045 13.3546 26.8479C14.1949 26.9517 15.0907 27 16.0245 27C20.2935 26.9524 25.57 25.1709 31 22C29.268 21.934 28.201 20.5146 27.99 19C27.89 18.23 28.02 17.3699 28.54 16.45V16.4399C28.5881 16.344 28.6489 16.2542 28.7124 16.1606L28.76 16.0901C28.8 16.01 28.86 15.9299 28.92 15.8501C29.11 15.5901 29.33 15.3101 29.59 15.04C29.6679 14.9573 29.7386 14.8792 29.8058 14.8013C29.8765 14.7192 29.9433 14.6372 30.01 14.55C30.03 14.53 30.04 14.5 30.05 14.48C24.7 17.5601 20.37 18.95 16.03 19C15.05 19 14.13 18.95 13.29 18.8401C9.78999 18.3899 6.16998 17.02 1.96998 14.5C1.98852 14.5239 2.00635 14.5476 2.02403 14.5713C2.07316 14.637 2.12117 14.7012 2.17998 14.76C2.24998 14.8501 2.31999 14.9399 2.40999 15.03C2.66998 15.3101 2.89998 15.5801 3.08998 15.8501C3.16998 15.95 3.23999 16.05 3.29999 16.1499L3.34939 16.2339C3.40564 16.3291 3.46374 16.4275 3.50998 16.52C4.00998 17.4199 4.13998 18.26 4.04999 19C3.87109 20.5398 2.99662 21.5475 1.00391 22.0039Z" fill="#67B1E6"/>
<path d="M30.97 23.02C30.96 23.03 30.93 23.05 30.91 23.06C25.26 26.4 20.61 27.95 16.03 28C15.06 28 14.12 27.95 13.23 27.84C9.47 27.36 5.57 25.82 1 23V27C6.67 30.5 11.32 32.03 15.95 32C20.58 31.97 25.27 30.4 31 27V23C31 23 30.99 23.01 30.97 23.02Z" fill="#D9D9D9"/>
<path d="M28.49 20.47C23.92 22.85 19.98 23.96 16.04 24C15.01 24 14.05 23.95 13.17 23.84C10.12 23.45 7.00003 22.3901 3.53003 20.5301C3.70003 20.2401 3.83003 19.93 3.92003 19.6C7.31003 21.4301 10.34 22.47 13.29 22.84C14.13 22.95 15.05 23 16.03 23C19.83 22.96 23.63 21.88 28.11 19.55C28.2 19.88 28.34 20.18 28.49 20.47Z" fill="#014F7F"/>
<path d="M30.06 14.48C29.92 14.67 29.77 14.85 29.59 15.04C29.14 15.52 28.79 15.99 28.54 16.44V16.45C23.95 18.84 20 19.96 16.04 20C15.01 20 14.05 19.95 13.17 19.84C10.11 19.45 6.98997 18.38 3.50997 16.52C3.25997 16.04 2.88997 15.54 2.40997 15.03C2.23997 14.85 2.09997 14.68 1.96997 14.5C6.16997 17.02 9.78997 18.39 13.29 18.84C14.13 18.95 15.05 19 16.03 19C20.37 18.95 24.71 17.56 30.06 14.48Z" fill="#014F7F"/>
<path d="M1.36986 10.1401C5.82986 12.8801 9.61986 14.3701 13.2899 14.8401C14.1299 14.9501 15.0499 15.0001 16.0299 15.0001C20.5199 14.9501 25.0299 13.4501 30.6399 10.1401L30.8999 11.1401C25.2599 14.4401 20.6599 15.9501 16.0399 16.0001C15.0099 16.0001 14.0499 15.9501 13.1699 15.8401C9.41986 15.3601 5.57986 13.8701 1.10986 11.1501L1.36986 10.1401Z" fill="#014F7F"/>
<path d="M29.4101 7.98003C24.4401 10.7 20.2401 11.96 16.0401 12C15.0101 12 14.0501 11.95 13.1701 11.84C9.84007 11.42 6.43008 10.19 2.58008 8.01003C2.73008 7.81003 2.88008 7.64003 3.00008 7.50003L3.36008 7.29003C6.98008 9.31003 10.1801 10.44 13.2901 10.84C14.1301 10.95 15.0501 11 16.0301 11C19.9701 10.96 23.9201 9.80003 28.6201 7.28003L29.0001 7.50003C29.1201 7.63003 29.2601 7.79003 29.4101 7.98003Z" fill="#014F7F"/>
<path d="M25.91 5.70984C22.4 7.23984 19.22 7.96984 16.04 7.99984C15.01 7.99984 14.05 7.94984 13.17 7.83984C10.87 7.54984 8.53003 6.86984 6.03003 5.75984L7.12003 5.12984C9.27003 6.02984 11.3 6.58984 13.29 6.83984C14.13 6.94984 15.05 6.99984 16.03 6.99984C18.87 6.96984 21.71 6.35984 24.83 5.08984L25.91 5.70984Z" fill="#014F7F"/>
<path fill-rule="evenodd" clip-rule="evenodd" d="M20.3482 2.50464L21.6049 3.23022C19.7077 3.73218 17.8739 3.98242 16.04 3.99976C15.01 3.99976 14.05 3.94995 13.17 3.83984C12.2273 3.72095 11.2779 3.53662 10.3135 3.28394L11.5842 2.55127C12.1573 2.67285 12.7253 2.7688 13.29 2.83984C14.13 2.94995 15.05 2.99976 16.03 2.99976C17.4576 2.98462 18.8851 2.823 20.3482 2.50464Z" fill="#014F7F"/>
</g>
<defs>
<clipPath id="clip0_7921_34531">
<rect width="32" height="32" fill="white"/>
</clipPath>
</defs>
</svg>
