<svg width="32" height="32" viewBox="0 0 32 32" fill="none" xmlns="http://www.w3.org/2000/svg">
<g clip-path="url(#clip0_440_96954)">
<path fill-rule="evenodd" clip-rule="evenodd" d="M5 20H12V27H5V20ZM11 26V21H6V26H11Z" fill="#73C5FF"/>
<path fill-rule="evenodd" clip-rule="evenodd" d="M20 20H27V27H20V20ZM26 26V21H21V26H26Z" fill="#73C5FF"/>
<path fill-rule="evenodd" clip-rule="evenodd" d="M5 5H12V12H5V5ZM11 11V6H6V11H11Z" fill="#D9D9D9"/>
<path fill-rule="evenodd" clip-rule="evenodd" d="M20 5H27V12H20V5ZM26 11V6H21V11H26Z" fill="#73C5FF"/>
<rect x="13" y="8" width="6" height="1" fill="#D9D9D9"/>
<rect x="8" y="13" width="1" height="6" fill="#D9D9D9"/>
<rect x="13" y="23" width="6" height="1" fill="#D9D9D9"/>
</g>
<defs>
<clipPath id="clip0_440_96954">
<rect width="32" height="32" fill="white"/>
</clipPath>
</defs>
</svg>
