<svg width="32" height="32" viewBox="0 0 32 32" fill="none" xmlns="http://www.w3.org/2000/svg">
<g clip-path="url(#clip0_441_82919)">
<path d="M0.117188 12.2734L31.4969 6.00316L31.8887 7.96439L0.50908 14.2347L0.117188 12.2734Z" fill="#73C5FF"/>
<path d="M0.112793 18.2769L31.4925 12.0066L31.8844 13.9678L0.504685 20.2381L0.112793 18.2769Z" fill="#73C5FF"/>
<path d="M4 0V10.47L5 10.28L27 5.88L28 5.68V0H4Z" fill="#D9D9D9"/>
<path d="M27 15.9598L5 20.3498L4 20.5498V22.4798L5 22.2698L27 17.8798L28 17.6798V15.7598L27 15.9598Z" fill="#D9D9D9"/>
<path d="M27 9.95977L5 14.3498L4 14.5498V16.4798L5 16.2698L27 11.8798L28 11.6798V9.75977L27 9.95977Z" fill="#D9D9D9"/>
<path d="M27 21.9598L5 26.3498L4 26.5498V31.9998H28V21.7598L27 21.9598Z" fill="#D9D9D9"/>
<path d="M0.118164 24.2705L31.4978 18.0002L31.8897 19.9615L0.510056 26.2317L0.118164 24.2705Z" fill="#73C5FF"/>
</g>
<defs>
<clipPath id="clip0_441_82919">
<rect width="32" height="32" fill="white"/>
</clipPath>
</defs>
</svg>
