ISO-10303-21;
HEADER;
/* Generated by software containing ST-Developer
 * from STEP Tools, Inc. (www.steptools.com) 
 */

FILE_DESCRIPTION(
/* description */ ('',
'CAx-IF Rec.Pracs.---Representation and Presentation of Product Manufa
cturing Information (PMI)---4.0---2014-10-13'),
/* implementation_level */ '2;1');

FILE_NAME(
/* name */ 'Collet.step',
/* time_stamp */ '2026-08-25T10:14:51+01:00',
/* author */ (''),
/* organization */ (''),
/* preprocessor_version */ 'ST-DEVELOPER v20.2',
/* originating_system */ 'Autodesk Translation Framework v15.17.0.0',
/* authorisation */ '');

FILE_SCHEMA (('AP242_MANAGED_MODEL_BASED_3D_ENGINEERING_MIM_LF { 1 0 10303 442 2 1 4 }'));
ENDSEC;

DATA;
#10=MECHANICAL_DESIGN_GEOMETRIC_PRESENTATION_REPRESENTATION('',(#218,#219,
#220,#221,#222,#223,#224,#225,#226,#227,#228,#229,#230,#231,#232),#450);
#11=SHAPE_REPRESENTATION_RELATIONSHIP('SRR','None',#457,#12);
#12=ADVANCED_BREP_SHAPE_REPRESENTATION('',(#13),#449);
#13=MANIFOLD_SOLID_BREP('Body1',#247);
#14=CYLINDRICAL_SURFACE('',#278,3.5);
#15=CYLINDRICAL_SURFACE('',#285,7.);
#16=CYLINDRICAL_SURFACE('',#296,8.5);
#17=LINE('',#400,#26);
#18=LINE('',#406,#27);
#19=LINE('',#410,#28);
#20=LINE('',#416,#29);
#21=LINE('',#423,#30);
#22=LINE('',#428,#31);
#23=LINE('',#439,#32);
#24=LINE('',#444,#33);
#25=LINE('',#446,#34);
#26=VECTOR('',#321,5.63390673873);
#27=VECTOR('',#328,1.);
#28=VECTOR('',#333,1.);
#29=VECTOR('',#340,3.5);
#30=VECTOR('',#349,1.);
#31=VECTOR('',#356,7.);
#32=VECTOR('',#369,6.29059892324);
#33=VECTOR('',#376,8.44112846302);
#34=VECTOR('',#379,8.5);
#35=CONICAL_SURFACE('',#270,5.63390673873,0.13962634016);
#36=CONICAL_SURFACE('',#273,1.,1.0471975512);
#37=CONICAL_SURFACE('',#276,1.,0.383972435439);
#38=CONICAL_SURFACE('',#283,1.,1.0471975512);
#39=CONICAL_SURFACE('',#291,6.29059892324,0.523598775598);
#40=CONICAL_SURFACE('',#294,8.44112846302,0.785398163397);
#41=FACE_BOUND('',#65,.T.);
#42=FACE_BOUND('',#71,.T.);
#43=FACE_BOUND('',#75,.T.);
#44=FACE_BOUND('',#77,.T.);
#45=PLANE('',#268);
#46=PLANE('',#281);
#47=PLANE('',#287);
#48=PLANE('',#289);
#49=FACE_OUTER_BOUND('',#63,.T.);
#50=FACE_OUTER_BOUND('',#64,.T.);
#51=FACE_OUTER_BOUND('',#66,.T.);
#52=FACE_OUTER_BOUND('',#67,.T.);
#53=FACE_OUTER_BOUND('',#68,.T.);
#54=FACE_OUTER_BOUND('',#69,.T.);
#55=FACE_OUTER_BOUND('',#70,.T.);
#56=FACE_OUTER_BOUND('',#72,.T.);
#57=FACE_OUTER_BOUND('',#73,.T.);
#58=FACE_OUTER_BOUND('',#74,.T.);
#59=FACE_OUTER_BOUND('',#76,.T.);
#60=FACE_OUTER_BOUND('',#78,.T.);
#61=FACE_OUTER_BOUND('',#79,.T.);
#62=FACE_OUTER_BOUND('',#80,.T.);
#63=EDGE_LOOP('',(#155,#156,#157,#158,#159,#160,#161));
#64=EDGE_LOOP('',(#162,#163,#164));
#65=EDGE_LOOP('',(#165));
#66=EDGE_LOOP('',(#166,#167,#168,#169,#170,#171));
#67=EDGE_LOOP('',(#172,#173,#174,#175,#176));
#68=EDGE_LOOP('',(#177,#178,#179,#180,#181));
#69=EDGE_LOOP('',(#182,#183,#184,#185,#186,#187));
#70=EDGE_LOOP('',(#188));
#71=EDGE_LOOP('',(#189));
#72=EDGE_LOOP('',(#190,#191,#192,#193,#194));
#73=EDGE_LOOP('',(#195,#196,#197,#198));
#74=EDGE_LOOP('',(#199));
#75=EDGE_LOOP('',(#200));
#76=EDGE_LOOP('',(#201));
#77=EDGE_LOOP('',(#202));
#78=EDGE_LOOP('',(#203,#204,#205,#206,#207));
#79=EDGE_LOOP('',(#208,#209,#210,#211));
#80=EDGE_LOOP('',(#212,#213,#214,#215,#216));
#81=CIRCLE('',#262,5.48525318089);
#82=CIRCLE('',#263,5.48525318172);
#83=CIRCLE('',#264,5.48525318089);
#84=CIRCLE('',#265,0.18);
#85=CIRCLE('',#266,5.66350143326);
#86=CIRCLE('',#267,5.66350143326);
#87=CIRCLE('',#269,3.75000000978);
#88=CIRCLE('',#271,8.47953147044);
#89=CIRCLE('',#272,8.47953147044);
#90=CIRCLE('',#274,3.50000000001);
#91=CIRCLE('',#275,3.50000000001);
#92=CIRCLE('',#277,8.3955116736341);
#93=CIRCLE('',#279,3.5);
#94=CIRCLE('',#280,3.5);
#95=CIRCLE('',#282,7.);
#96=CIRCLE('',#284,3.75000000004);
#97=CIRCLE('',#286,7.);
#98=CIRCLE('',#288,6.29059892339726);
#99=CIRCLE('',#290,8.44142135622);
#100=CIRCLE('',#292,8.49999999997);
#101=CIRCLE('',#293,8.49999999997);
#102=CIRCLE('',#295,8.50000000006);
#103=VERTEX_POINT('',#382);
#104=VERTEX_POINT('',#383);
#105=VERTEX_POINT('',#385);
#106=VERTEX_POINT('',#388);
#107=VERTEX_POINT('',#390);
#108=VERTEX_POINT('',#394);
#109=VERTEX_POINT('',#397);
#110=VERTEX_POINT('',#398);
#111=VERTEX_POINT('',#403);
#112=VERTEX_POINT('',#404);
#113=VERTEX_POINT('',#409);
#114=VERTEX_POINT('',#413);
#115=VERTEX_POINT('',#414);
#116=VERTEX_POINT('',#419);
#117=VERTEX_POINT('',#422);
#118=VERTEX_POINT('',#426);
#119=VERTEX_POINT('',#430);
#120=VERTEX_POINT('',#433);
#121=VERTEX_POINT('',#436);
#122=VERTEX_POINT('',#437);
#123=VERTEX_POINT('',#442);
#124=EDGE_CURVE('',#103,#104,#81,.T.);
#125=EDGE_CURVE('',#105,#103,#82,.T.);
#126=EDGE_CURVE('',#104,#105,#83,.T.);
#127=EDGE_CURVE('',#104,#106,#84,.T.);
#128=EDGE_CURVE('',#106,#107,#85,.T.);
#129=EDGE_CURVE('',#107,#106,#86,.T.);
#130=EDGE_CURVE('',#108,#108,#87,.T.);
#131=EDGE_CURVE('',#109,#110,#88,.T.);
#132=EDGE_CURVE('',#109,#107,#17,.T.);
#133=EDGE_CURVE('',#110,#109,#89,.T.);
#134=EDGE_CURVE('',#111,#112,#90,.T.);
#135=EDGE_CURVE('',#111,#108,#18,.T.);
#136=EDGE_CURVE('',#112,#111,#91,.T.);
#137=EDGE_CURVE('',#110,#113,#19,.T.);
#138=EDGE_CURVE('',#113,#113,#92,.T.);
#139=EDGE_CURVE('',#114,#115,#93,.F.);
#140=EDGE_CURVE('',#115,#112,#20,.T.);
#141=EDGE_CURVE('',#115,#114,#94,.F.);
#142=EDGE_CURVE('',#116,#116,#95,.F.);
#143=EDGE_CURVE('',#114,#117,#21,.T.);
#144=EDGE_CURVE('',#117,#117,#96,.T.);
#145=EDGE_CURVE('',#118,#118,#97,.F.);
#146=EDGE_CURVE('',#118,#116,#22,.T.);
#147=EDGE_CURVE('',#119,#119,#98,.F.);
#148=EDGE_CURVE('',#120,#120,#99,.T.);
#149=EDGE_CURVE('',#121,#122,#100,.F.);
#150=EDGE_CURVE('',#122,#119,#23,.T.);
#151=EDGE_CURVE('',#122,#121,#101,.F.);
#152=EDGE_CURVE('',#123,#123,#102,.T.);
#153=EDGE_CURVE('',#123,#120,#24,.T.);
#154=EDGE_CURVE('',#121,#123,#25,.T.);
#155=ORIENTED_EDGE('',*,*,#124,.F.);
#156=ORIENTED_EDGE('',*,*,#125,.F.);
#157=ORIENTED_EDGE('',*,*,#126,.F.);
#158=ORIENTED_EDGE('',*,*,#127,.T.);
#159=ORIENTED_EDGE('',*,*,#128,.T.);
#160=ORIENTED_EDGE('',*,*,#129,.T.);
#161=ORIENTED_EDGE('',*,*,#127,.F.);
#162=ORIENTED_EDGE('',*,*,#124,.T.);
#163=ORIENTED_EDGE('',*,*,#126,.T.);
#164=ORIENTED_EDGE('',*,*,#125,.T.);
#165=ORIENTED_EDGE('',*,*,#130,.F.);
#166=ORIENTED_EDGE('',*,*,#131,.F.);
#167=ORIENTED_EDGE('',*,*,#132,.T.);
#168=ORIENTED_EDGE('',*,*,#128,.F.);
#169=ORIENTED_EDGE('',*,*,#129,.F.);
#170=ORIENTED_EDGE('',*,*,#132,.F.);
#171=ORIENTED_EDGE('',*,*,#133,.F.);
#172=ORIENTED_EDGE('',*,*,#134,.F.);
#173=ORIENTED_EDGE('',*,*,#135,.T.);
#174=ORIENTED_EDGE('',*,*,#130,.T.);
#175=ORIENTED_EDGE('',*,*,#135,.F.);
#176=ORIENTED_EDGE('',*,*,#136,.F.);
#177=ORIENTED_EDGE('',*,*,#131,.T.);
#178=ORIENTED_EDGE('',*,*,#137,.T.);
#179=ORIENTED_EDGE('',*,*,#138,.F.);
#180=ORIENTED_EDGE('',*,*,#137,.F.);
#181=ORIENTED_EDGE('',*,*,#133,.T.);
#182=ORIENTED_EDGE('',*,*,#139,.T.);
#183=ORIENTED_EDGE('',*,*,#140,.T.);
#184=ORIENTED_EDGE('',*,*,#136,.T.);
#185=ORIENTED_EDGE('',*,*,#134,.T.);
#186=ORIENTED_EDGE('',*,*,#140,.F.);
#187=ORIENTED_EDGE('',*,*,#141,.T.);
#188=ORIENTED_EDGE('',*,*,#138,.T.);
#189=ORIENTED_EDGE('',*,*,#142,.T.);
#190=ORIENTED_EDGE('',*,*,#139,.F.);
#191=ORIENTED_EDGE('',*,*,#143,.T.);
#192=ORIENTED_EDGE('',*,*,#144,.T.);
#193=ORIENTED_EDGE('',*,*,#143,.F.);
#194=ORIENTED_EDGE('',*,*,#141,.F.);
#195=ORIENTED_EDGE('',*,*,#145,.T.);
#196=ORIENTED_EDGE('',*,*,#146,.T.);
#197=ORIENTED_EDGE('',*,*,#142,.F.);
#198=ORIENTED_EDGE('',*,*,#146,.F.);
#199=ORIENTED_EDGE('',*,*,#147,.T.);
#200=ORIENTED_EDGE('',*,*,#144,.F.);
#201=ORIENTED_EDGE('',*,*,#148,.F.);
#202=ORIENTED_EDGE('',*,*,#145,.F.);
#203=ORIENTED_EDGE('',*,*,#149,.T.);
#204=ORIENTED_EDGE('',*,*,#150,.T.);
#205=ORIENTED_EDGE('',*,*,#147,.F.);
#206=ORIENTED_EDGE('',*,*,#150,.F.);
#207=ORIENTED_EDGE('',*,*,#151,.T.);
#208=ORIENTED_EDGE('',*,*,#152,.F.);
#209=ORIENTED_EDGE('',*,*,#153,.T.);
#210=ORIENTED_EDGE('',*,*,#148,.T.);
#211=ORIENTED_EDGE('',*,*,#153,.F.);
#212=ORIENTED_EDGE('',*,*,#149,.F.);
#213=ORIENTED_EDGE('',*,*,#154,.T.);
#214=ORIENTED_EDGE('',*,*,#152,.T.);
#215=ORIENTED_EDGE('',*,*,#154,.F.);
#216=ORIENTED_EDGE('',*,*,#151,.F.);
#217=TOROIDAL_SURFACE('',#261,5.48525318089,0.18);
#218=STYLED_ITEM('',(#468),#233);
#219=STYLED_ITEM('',(#468),#234);
#220=STYLED_ITEM('',(#468),#235);
#221=STYLED_ITEM('',(#468),#236);
#222=STYLED_ITEM('',(#468),#237);
#223=STYLED_ITEM('',(#468),#238);
#224=STYLED_ITEM('',(#468),#239);
#225=STYLED_ITEM('',(#468),#240);
#226=STYLED_ITEM('',(#468),#241);
#227=STYLED_ITEM('',(#468),#242);
#228=STYLED_ITEM('',(#468),#243);
#229=STYLED_ITEM('',(#468),#244);
#230=STYLED_ITEM('',(#468),#245);
#231=STYLED_ITEM('',(#468),#246);
#232=STYLED_ITEM('',(#467),#13);
#233=ADVANCED_FACE('',(#49),#217,.T.);
#234=ADVANCED_FACE('',(#50,#41),#45,.T.);
#235=ADVANCED_FACE('',(#51),#35,.T.);
#236=ADVANCED_FACE('',(#52),#36,.F.);
#237=ADVANCED_FACE('',(#53),#37,.T.);
#238=ADVANCED_FACE('',(#54),#14,.F.);
#239=ADVANCED_FACE('',(#55,#42),#46,.T.);
#240=ADVANCED_FACE('',(#56),#38,.F.);
#241=ADVANCED_FACE('',(#57),#15,.T.);
#242=ADVANCED_FACE('',(#58,#43),#47,.T.);
#243=ADVANCED_FACE('',(#59,#44),#48,.F.);
#244=ADVANCED_FACE('',(#60),#39,.T.);
#245=ADVANCED_FACE('',(#61),#40,.T.);
#246=ADVANCED_FACE('',(#62),#16,.T.);
#247=CLOSED_SHELL('',(#233,#234,#235,#236,#237,#238,#239,#240,#241,#242,
#243,#244,#245,#246));
#248=DERIVED_UNIT_ELEMENT(#250,1.);
#249=DERIVED_UNIT_ELEMENT(#452,-3.);
#250=(
MASS_UNIT()
NAMED_UNIT(*)
SI_UNIT(.KILO.,.GRAM.)
);
#251=DERIVED_UNIT((#248,#249));
#252=MEASURE_REPRESENTATION_ITEM('density measure',
POSITIVE_RATIO_MEASURE(7850.),#251);
#253=PROPERTY_DEFINITION_REPRESENTATION(#258,#255);
#254=PROPERTY_DEFINITION_REPRESENTATION(#259,#256);
#255=REPRESENTATION('material name',(#257),#449);
#256=REPRESENTATION('density',(#252),#449);
#257=DESCRIPTIVE_REPRESENTATION_ITEM('Steel','Steel');
#258=PROPERTY_DEFINITION('material property','material name',#459);
#259=PROPERTY_DEFINITION('material property','density of part',#459);
#260=AXIS2_PLACEMENT_3D('',#380,#297,#298);
#261=AXIS2_PLACEMENT_3D('',#381,#299,#300);
#262=AXIS2_PLACEMENT_3D('',#384,#301,#302);
#263=AXIS2_PLACEMENT_3D('',#386,#303,#304);
#264=AXIS2_PLACEMENT_3D('',#387,#305,#306);
#265=AXIS2_PLACEMENT_3D('',#389,#307,#308);
#266=AXIS2_PLACEMENT_3D('',#391,#309,#310);
#267=AXIS2_PLACEMENT_3D('',#392,#311,#312);
#268=AXIS2_PLACEMENT_3D('',#393,#313,#314);
#269=AXIS2_PLACEMENT_3D('',#395,#315,#316);
#270=AXIS2_PLACEMENT_3D('',#396,#317,#318);
#271=AXIS2_PLACEMENT_3D('',#399,#319,#320);
#272=AXIS2_PLACEMENT_3D('',#401,#322,#323);
#273=AXIS2_PLACEMENT_3D('',#402,#324,#325);
#274=AXIS2_PLACEMENT_3D('',#405,#326,#327);
#275=AXIS2_PLACEMENT_3D('',#407,#329,#330);
#276=AXIS2_PLACEMENT_3D('',#408,#331,#332);
#277=AXIS2_PLACEMENT_3D('',#411,#334,#335);
#278=AXIS2_PLACEMENT_3D('',#412,#336,#337);
#279=AXIS2_PLACEMENT_3D('',#415,#338,#339);
#280=AXIS2_PLACEMENT_3D('',#417,#341,#342);
#281=AXIS2_PLACEMENT_3D('',#418,#343,#344);
#282=AXIS2_PLACEMENT_3D('',#420,#345,#346);
#283=AXIS2_PLACEMENT_3D('',#421,#347,#348);
#284=AXIS2_PLACEMENT_3D('',#424,#350,#351);
#285=AXIS2_PLACEMENT_3D('',#425,#352,#353);
#286=AXIS2_PLACEMENT_3D('',#427,#354,#355);
#287=AXIS2_PLACEMENT_3D('',#429,#357,#358);
#288=AXIS2_PLACEMENT_3D('',#431,#359,#360);
#289=AXIS2_PLACEMENT_3D('',#432,#361,#362);
#290=AXIS2_PLACEMENT_3D('',#434,#363,#364);
#291=AXIS2_PLACEMENT_3D('',#435,#365,#366);
#292=AXIS2_PLACEMENT_3D('',#438,#367,#368);
#293=AXIS2_PLACEMENT_3D('',#440,#370,#371);
#294=AXIS2_PLACEMENT_3D('',#441,#372,#373);
#295=AXIS2_PLACEMENT_3D('',#443,#374,#375);
#296=AXIS2_PLACEMENT_3D('',#445,#377,#378);
#297=DIRECTION('axis',(0.,0.,1.));
#298=DIRECTION('refdir',(1.,0.,0.));
#299=DIRECTION('center_axis',(0.,0.,1.));
#300=DIRECTION('ref_axis',(0.146118618392006,-0.989267076860042,0.));
#301=DIRECTION('center_axis',(0.,0.,1.));
#302=DIRECTION('ref_axis',(-1.,0.,0.));
#303=DIRECTION('center_axis',(0.,0.,1.));
#304=DIRECTION('ref_axis',(-1.,0.,0.));
#305=DIRECTION('center_axis',(0.,0.,1.));
#306=DIRECTION('ref_axis',(-1.,0.,0.));
#307=DIRECTION('center_axis',(-0.989267076860042,-0.146118618392006,0.));
#308=DIRECTION('ref_axis',(-0.146118618392006,0.989267076860042,0.));
#309=DIRECTION('center_axis',(0.,0.,1.));
#310=DIRECTION('ref_axis',(-1.,0.,0.));
#311=DIRECTION('center_axis',(0.,0.,1.));
#312=DIRECTION('ref_axis',(-1.,0.,0.));
#313=DIRECTION('center_axis',(0.,0.,1.));
#314=DIRECTION('ref_axis',(-1.,0.,0.));
#315=DIRECTION('center_axis',(0.,0.,1.));
#316=DIRECTION('ref_axis',(-1.,0.,0.));
#317=DIRECTION('center_axis',(-6.12323399574E-17,0.,-1.));
#318=DIRECTION('ref_axis',(-0.877582561890373,0.479425538604204,5.37364337703573E-17));
#319=DIRECTION('center_axis',(-1.40741827424E-17,-2.5762618703E-17,-1.));
#320=DIRECTION('ref_axis',(1.,0.,-1.40741827424E-17));
#321=DIRECTION('',(-0.122135886487156,0.0667231388872119,0.990268068741507));
#322=DIRECTION('center_axis',(-1.40741827424E-17,-2.5762618703E-17,-1.));
#323=DIRECTION('ref_axis',(1.,0.,-1.40741827424E-17));
#324=DIRECTION('center_axis',(8.614872835E-14,-1.68759205357E-12,1.));
#325=DIRECTION('ref_axis',(0.809016994374715,-0.587785252292793,-1.06163750625388E-12));
#326=DIRECTION('center_axis',(8.61455480846E-14,-1.68758974297E-12,1.));
#327=DIRECTION('ref_axis',(-1.,0.,8.61455480846E-14));
#328=DIRECTION('',(-0.700629269223169,0.50903696045556,0.499999999997973));
#329=DIRECTION('center_axis',(8.61455480846E-14,-1.68758974297E-12,1.));
#330=DIRECTION('ref_axis',(-1.,0.,8.61455480846E-14));
#331=DIRECTION('center_axis',(0.,0.,1.));
#332=DIRECTION('ref_axis',(0.877582561890373,-0.479425538604204,0.));
#333=DIRECTION('',(0.328748213951163,-0.179595967813219,-0.927183854566695));
#334=DIRECTION('center_axis',(-6.12323399574E-17,0.,-1.));
#335=DIRECTION('ref_axis',(0.877582561890373,-0.479425538604204,0.));
#336=DIRECTION('center_axis',(0.,0.,1.));
#337=DIRECTION('ref_axis',(-1.,1.22464679915E-16,0.));
#338=DIRECTION('center_axis',(0.,0.,1.));
#339=DIRECTION('ref_axis',(1.,-2.62941879001792E-16,0.));
#340=DIRECTION('',(0.,0.,1.));
#341=DIRECTION('center_axis',(0.,0.,1.));
#342=DIRECTION('ref_axis',(1.,-2.62941879001792E-16,0.));
#343=DIRECTION('center_axis',(-6.12323399574E-17,0.,-1.));
#344=DIRECTION('ref_axis',(0.,1.,0.));
#345=DIRECTION('center_axis',(0.,0.,-1.));
#346=DIRECTION('ref_axis',(-0.877582561923978,0.479425538542689,0.));
#347=DIRECTION('center_axis',(-5.76888805915E-13,-8.81486095438E-13,-1.));
#348=DIRECTION('ref_axis',(1.,3.39774902364E-14,-5.7688880591503E-13));
#349=DIRECTION('',(-0.866025403786428,-4.70062359894148E-13,-0.499999999996554));
#350=DIRECTION('center_axis',(-5.76843851046E-13,-8.81486095438E-13,-1.));
#351=DIRECTION('ref_axis',(1.,0.,-5.76843851046E-13));
#352=DIRECTION('center_axis',(-6.12323399574E-17,-2.92802981305E-29,-1.));
#353=DIRECTION('ref_axis',(0.877582561890373,-0.479425538604204,-5.37364337703433E-17));
#354=DIRECTION('center_axis',(-6.12323399574E-17,-2.92802981305E-29,-1.));
#355=DIRECTION('ref_axis',(1.,0.,-6.12323399574E-17));
#356=DIRECTION('',(6.12323399574E-17,2.92802981305E-29,1.));
#357=DIRECTION('center_axis',(-6.12323399574E-17,0.,-1.));
#358=DIRECTION('ref_axis',(0.,1.,0.));
#359=DIRECTION('center_axis',(-4.78994657304246E-16,-1.40540861103022E-16,
1.));
#360=DIRECTION('ref_axis',(-0.877582561890564,0.479425538603852,0.));
#361=DIRECTION('center_axis',(-6.12323399574E-17,0.,-1.));
#362=DIRECTION('ref_axis',(0.,1.,0.));
#363=DIRECTION('center_axis',(-6.12323399574E-17,0.,-1.));
#364=DIRECTION('ref_axis',(-0.877582561890372,0.479425538604203,5.37364337703573E-17));
#365=DIRECTION('center_axis',(6.12323399574E-17,0.,1.));
#366=DIRECTION('ref_axis',(0.877582561890373,-0.479425538604204,-5.37364337703573E-17));
#367=DIRECTION('center_axis',(1.40741827424E-17,2.5762618703E-17,1.));
#368=DIRECTION('ref_axis',(-1.,0.,1.40741827424E-17));
#369=DIRECTION('',(0.438791280944959,-0.239712769301978,-0.866025403784588));
#370=DIRECTION('center_axis',(1.40741827424E-17,2.5762618703E-17,1.));
#371=DIRECTION('ref_axis',(-1.,0.,1.40741827424E-17));
#372=DIRECTION('center_axis',(-6.12323399574E-17,0.,-1.));
#373=DIRECTION('ref_axis',(-0.877582561890372,0.479425538604203,5.37364337703573E-17));
#374=DIRECTION('center_axis',(-1.40741827424E-17,-2.5762618703E-17,-1.));
#375=DIRECTION('ref_axis',(1.,0.,-1.40741827424E-17));
#376=DIRECTION('',(-0.620544580563467,0.339005049420893,0.707106781186865));
#377=DIRECTION('center_axis',(-6.12323399574E-17,-2.92802981305E-29,-1.));
#378=DIRECTION('ref_axis',(-0.877582561890373,0.479425538604203,5.37364337703433E-17));
#379=DIRECTION('',(6.12323399574E-17,2.92802981305E-29,1.));
#380=CARTESIAN_POINT('',(0.,0.,0.));
#381=CARTESIAN_POINT('Origin',(1.33226762955E-15,4.4408920985E-16,-0.179999999996));
#382=CARTESIAN_POINT('',(4.81373793733,-2.62981549337,3.99999477985E-12));
#383=CARTESIAN_POINT('',(-0.801497616322003,5.4263803800963,3.99999477984636E-12));
#384=CARTESIAN_POINT('Origin',(1.33226762955E-15,4.4408920985E-16,3.99999477985E-12));
#385=CARTESIAN_POINT('',(-4.81376253962644,2.6297704609176,3.953989913265E-12));
#386=CARTESIAN_POINT('Origin',(-2.93489677006E-10,2.26704433004E-10,3.90798504668E-12));
#387=CARTESIAN_POINT('Origin',(1.33226762955E-15,4.4408920985E-16,3.99999477985E-12));
#388=CARTESIAN_POINT('',(-0.827543004689097,5.60271550767378,-0.154948841823));
#389=CARTESIAN_POINT('Origin',(-0.801497616322003,5.42638038009629,-0.179999999996));
#390=CARTESIAN_POINT('',(4.97019009707427,-2.71522722502863,-0.154948841822333));
#391=CARTESIAN_POINT('Origin',(1.33226762955E-15,4.4408920985E-16,-0.154948841823));
#392=CARTESIAN_POINT('Origin',(1.33226762955E-15,4.4408920985E-16,-0.154948841823));
#393=CARTESIAN_POINT('Origin',(9.19334030151,0.,3.90798504668E-12));
#394=CARTESIAN_POINT('',(-3.03381374201073,2.20419470561948,9.34077148961876E-9));
#395=CARTESIAN_POINT('Origin',(-9.78137570939E-9,3.87374021749E-9,3.90798504668E-12));
#396=CARTESIAN_POINT('Origin',(1.03088491862E-15,0.,0.0556283516127));
#397=CARTESIAN_POINT('',(7.44148895145905,-4.06530394232715,-20.1920437056));
#398=CARTESIAN_POINT('',(-7.44148895142804,4.0653039423102,-20.1920437055858));
#399=CARTESIAN_POINT('Origin',(-2.08927420133E-16,0.,-20.1920437056));
#400=CARTESIAN_POINT('',(4.94421830922611,-2.70103877266148,0.0556283516126997));
#401=CARTESIAN_POINT('Origin',(-2.08927420133E-16,0.,-20.1920437056));
#402=CARTESIAN_POINT('Origin',(-1.24789067968174E-13,2.43616238293674E-12,
-1.58771324027491));
#403=CARTESIAN_POINT('',(-2.83155948031974,2.05724838303076,-0.144337567302595));
#404=CARTESIAN_POINT('',(3.5,-9.26418525568926E-28,-0.144337567299484));
#405=CARTESIAN_POINT('Origin',(-4.4408921061E-16,3.33066918802E-16,-0.144337567306));
#406=CARTESIAN_POINT('',(-0.80901699437484,0.587785252295229,-1.58771324027385));
#407=CARTESIAN_POINT('Origin',(-4.4408921061E-16,3.33066918802E-16,-0.144337567306));
#408=CARTESIAN_POINT('Origin',(-4.4408920985E-16,1.7763568394E-15,-38.7045337176855));
#409=CARTESIAN_POINT('',(-7.36775464293,4.02502270599,-20.4));
#410=CARTESIAN_POINT('',(-0.877582561890373,0.479425538604205,-38.7045337176855));
#411=CARTESIAN_POINT('Origin',(-4.4408920985E-16,1.7763568394E-15,-20.4));
#412=CARTESIAN_POINT('Origin',(0.,0.,-14.1599998094));
#413=CARTESIAN_POINT('',(-3.50000000002084,-1.19380767863159E-13,-26.8556624326578));
#414=CARTESIAN_POINT('',(3.5,-9.26418525568926E-28,-26.8556624327));
#415=CARTESIAN_POINT('Origin',(0.,6.3043817102198E-17,-26.8556624327));
#416=CARTESIAN_POINT('',(3.5,-9.26418525568926E-28,-14.1599998094));
#417=CARTESIAN_POINT('Origin',(0.,6.3043817102198E-17,-26.8556624327));
#418=CARTESIAN_POINT('Origin',(-7.,0.,-20.4));
#419=CARTESIAN_POINT('',(-6.14307793323261,3.35597877022943,-20.4));
#420=CARTESIAN_POINT('Origin',(-1.11022302462516E-15,5.55111512312578E-16,
-20.4));
#421=CARTESIAN_POINT('Origin',(8.3288931307511E-13,1.27142740780596E-12,
-25.4122867596851));
#422=CARTESIAN_POINT('',(-3.7500000000543,-2.55076082891406E-13,-26.9999999999732));
#423=CARTESIAN_POINT('',(-0.999999999999167,1.23757238224947E-12,-25.4122867596845));
#424=CARTESIAN_POINT('Origin',(-8.30446822461E-14,-1.28119737045E-13,-27.));
#425=CARTESIAN_POINT('Origin',(2.06965309056E-16,0.,-13.4));
#426=CARTESIAN_POINT('',(-6.14307793323261,3.35597877022943,-22.9));
#427=CARTESIAN_POINT('Origin',(-3.74741920539E-16,-2.7816283224E-28,-22.9));
#428=CARTESIAN_POINT('',(-6.14307793323261,3.35597877022943,-13.4));
#429=CARTESIAN_POINT('Origin',(1.40291494107E-14,0.,-27.));
#430=CARTESIAN_POINT('',(-5.52051991901979,3.01587377699275,-26.9999999997276));
#431=CARTESIAN_POINT('Origin',(0.,-1.11022302462516E-15,-26.9999999997276));
#432=CARTESIAN_POINT('Origin',(-8.4,0.,-22.9));
#433=CARTESIAN_POINT('',(7.40804418027,-4.04703298025,-22.9));
#434=CARTESIAN_POINT('Origin',(-3.74741920537994E-16,0.,-22.9));
#435=CARTESIAN_POINT('Origin',(-6.25794514364E-16,0.,-27.));
#436=CARTESIAN_POINT('',(7.45945177605,-4.07511707812,-23.1732050808));
#437=CARTESIAN_POINT('',(-7.45945177604322,4.0751170781221,-23.1732050808009));
#438=CARTESIAN_POINT('Origin',(-3.91470906924E-16,0.,-23.1732050808));
#439=CARTESIAN_POINT('',(-5.52051991888178,3.01587377691736,-27.));
#440=CARTESIAN_POINT('Origin',(-3.91470906924E-16,0.,-23.1732050808));
#441=CARTESIAN_POINT('Origin',(-3.74723986002E-16,0.,-22.8997071068));
#442=CARTESIAN_POINT('',(7.45945177608,-4.07511707814,-22.9585786438));
#443=CARTESIAN_POINT('Origin',(-3.78328827972E-16,0.,-22.9585786438));
#444=CARTESIAN_POINT('',(7.40778714182283,-4.04689255981064,-22.8997071068));
#445=CARTESIAN_POINT('Origin',(2.06965309056E-16,0.,-13.4));
#446=CARTESIAN_POINT('',(7.45945177606817,-4.07511707813573,-13.4));
#447=UNCERTAINTY_MEASURE_WITH_UNIT(LENGTH_MEASURE(0.01),#451,
'DISTANCE_ACCURACY_VALUE',
'Maximum model space distance between geometric entities at asserted c
onnectivities');
#448=UNCERTAINTY_MEASURE_WITH_UNIT(LENGTH_MEASURE(0.01),#451,
'DISTANCE_ACCURACY_VALUE',
'Maximum model space distance between geometric entities at asserted c
onnectivities');
#449=(
GEOMETRIC_REPRESENTATION_CONTEXT(3)
GLOBAL_UNCERTAINTY_ASSIGNED_CONTEXT((#447))
GLOBAL_UNIT_ASSIGNED_CONTEXT((#451,#453,#454))
REPRESENTATION_CONTEXT('','3D')
);
#450=(
GEOMETRIC_REPRESENTATION_CONTEXT(3)
GLOBAL_UNCERTAINTY_ASSIGNED_CONTEXT((#448))
GLOBAL_UNIT_ASSIGNED_CONTEXT((#451,#453,#454))
REPRESENTATION_CONTEXT('','3D')
);
#451=(
LENGTH_UNIT()
NAMED_UNIT(*)
SI_UNIT(.MILLI.,.METRE.)
);
#452=(
LENGTH_UNIT()
NAMED_UNIT(*)
SI_UNIT($,.METRE.)
);
#453=(
NAMED_UNIT(*)
PLANE_ANGLE_UNIT()
SI_UNIT($,.RADIAN.)
);
#454=(
NAMED_UNIT(*)
SI_UNIT($,.STERADIAN.)
SOLID_ANGLE_UNIT()
);
#455=SHAPE_DEFINITION_REPRESENTATION(#456,#457);
#456=PRODUCT_DEFINITION_SHAPE('',$,#459);
#457=SHAPE_REPRESENTATION('',(#260),#449);
#458=PRODUCT_DEFINITION_CONTEXT('part definition',#463,'design');
#459=PRODUCT_DEFINITION('4511359-ER16 SPR .238-.278 AA - Basic-inch',
'4511359-ER16 SPR .238-.278 AA - Basic-inch',#460,#458);
#460=PRODUCT_DEFINITION_FORMATION('',$,#465);
#461=PRODUCT_RELATED_PRODUCT_CATEGORY(
'4511359-ER16 SPR .238-.278 AA - Basic-inch',
'4511359-ER16 SPR .238-.278 AA - Basic-inch',(#465));
#462=APPLICATION_PROTOCOL_DEFINITION('international standard',
'ap242_managed_model_based_3d_engineering',2011,#463);
#463=APPLICATION_CONTEXT('Managed model based 3d engineering');
#464=PRODUCT_CONTEXT('part definition',#463,'mechanical');
#465=PRODUCT('4511359-ER16 SPR .238-.278 AA - Basic-inch',
'4511359-ER16 SPR .238-.278 AA - Basic-inch',$,(#464));
#466=PRESENTATION_STYLE_ASSIGNMENT((#469));
#467=PRESENTATION_STYLE_ASSIGNMENT((#470));
#468=PRESENTATION_STYLE_ASSIGNMENT((#471));
#469=SURFACE_STYLE_USAGE(.BOTH.,#472);
#470=SURFACE_STYLE_USAGE(.BOTH.,#473);
#471=SURFACE_STYLE_USAGE(.BOTH.,#474);
#472=SURFACE_SIDE_STYLE('',(#475));
#473=SURFACE_SIDE_STYLE('',(#476));
#474=SURFACE_SIDE_STYLE('',(#477));
#475=SURFACE_STYLE_FILL_AREA(#478);
#476=SURFACE_STYLE_FILL_AREA(#479);
#477=SURFACE_STYLE_FILL_AREA(#480);
#478=FILL_AREA_STYLE('Steel - Satin',(#481));
#479=FILL_AREA_STYLE('Opaque(128,128,128)',(#482));
#480=FILL_AREA_STYLE('Opaque(127,127,127)',(#483));
#481=FILL_AREA_STYLE_COLOUR('Steel - Satin',#484);
#482=FILL_AREA_STYLE_COLOUR('Opaque(128,128,128)',#485);
#483=FILL_AREA_STYLE_COLOUR('Opaque(127,127,127)',#486);
#484=COLOUR_RGB('Steel - Satin',0.627450980392157,0.627450980392157,0.627450980392157);
#485=COLOUR_RGB('Opaque(128,128,128)',0.501960784313725,0.501960784313725,
0.501960784313725);
#486=COLOUR_RGB('Opaque(127,127,127)',0.498039215686275,0.498039215686275,
0.498039215686275);
ENDSEC;
END-ISO-10303-21;
