ISO-10303-21;
HEADER;
/* Generated by software containing ST-Developer
 * from STEP Tools, Inc. (www.steptools.com) 
 */

FILE_DESCRIPTION(
/* description */ ('',
'CAx-IF Rec.Pracs.---Representation and Presentation of Product Manufa
cturing Information (PMI)---4.0---2014-10-13'),
/* implementation_level */ '2;1');

FILE_NAME(
/* name */ 'Extension.step',
/* time_stamp */ '2026-08-25T10:20:12+01:00',
/* author */ (''),
/* organization */ (''),
/* preprocessor_version */ 'ST-DEVELOPER v20.2',
/* originating_system */ 'Autodesk Translation Framework v15.17.0.0',
/* authorisation */ '');

FILE_SCHEMA (('AP242_MANAGED_MODEL_BASED_3D_ENGINEERING_MIM_LF { 1 0 10303 442 2 1 4 }'));
ENDSEC;

DATA;
#10=MECHANICAL_DESIGN_GEOMETRIC_PRESENTATION_REPRESENTATION('',(#13),#597);
#11=SHAPE_REPRESENTATION_RELATIONSHIP('SRR','None',#604,#12);
#12=ADVANCED_BREP_SHAPE_REPRESENTATION('',(#14),#596);
#13=STYLED_ITEM('',(#614),#14);
#14=MANIFOLD_SOLID_BREP('Body1',#322);
#15=TOROIDAL_SURFACE('',#356,9.5,1.5);
#16=TOROIDAL_SURFACE('',#365,10.525,1.2);
#17=TOROIDAL_SURFACE('',#370,10.525,1.2);
#18=FACE_BOUND('',#58,.T.);
#19=FACE_BOUND('',#71,.T.);
#20=PLANE('',#350);
#21=PLANE('',#380);
#22=CYLINDRICAL_SURFACE('',#338,5.5);
#23=CYLINDRICAL_SURFACE('',#343,8.);
#24=CYLINDRICAL_SURFACE('',#348,6.255);
#25=CYLINDRICAL_SURFACE('',#354,11.);
#26=CYLINDRICAL_SURFACE('',#360,9.5);
#27=CYLINDRICAL_SURFACE('',#368,9.325);
#28=CYLINDRICAL_SURFACE('',#375,9.525);
#29=CYLINDRICAL_SURFACE('',#382,6.5);
#30=FACE_OUTER_BOUND('',#51,.T.);
#31=FACE_OUTER_BOUND('',#52,.T.);
#32=FACE_OUTER_BOUND('',#53,.T.);
#33=FACE_OUTER_BOUND('',#54,.T.);
#34=FACE_OUTER_BOUND('',#55,.T.);
#35=FACE_OUTER_BOUND('',#56,.T.);
#36=FACE_OUTER_BOUND('',#57,.T.);
#37=FACE_OUTER_BOUND('',#59,.T.);
#38=FACE_OUTER_BOUND('',#60,.T.);
#39=FACE_OUTER_BOUND('',#61,.T.);
#40=FACE_OUTER_BOUND('',#62,.T.);
#41=FACE_OUTER_BOUND('',#63,.T.);
#42=FACE_OUTER_BOUND('',#64,.T.);
#43=FACE_OUTER_BOUND('',#65,.T.);
#44=FACE_OUTER_BOUND('',#66,.T.);
#45=FACE_OUTER_BOUND('',#67,.T.);
#46=FACE_OUTER_BOUND('',#68,.T.);
#47=FACE_OUTER_BOUND('',#69,.T.);
#48=FACE_OUTER_BOUND('',#70,.T.);
#49=FACE_OUTER_BOUND('',#72,.T.);
#50=FACE_OUTER_BOUND('',#73,.T.);
#51=EDGE_LOOP('',(#205,#206,#207));
#52=EDGE_LOOP('',(#208,#209,#210,#211));
#53=EDGE_LOOP('',(#212,#213,#214,#215,#216));
#54=EDGE_LOOP('',(#217,#218,#219,#220,#221,#222));
#55=EDGE_LOOP('',(#223,#224,#225,#226,#227));
#56=EDGE_LOOP('',(#228,#229,#230,#231));
#57=EDGE_LOOP('',(#232));
#58=EDGE_LOOP('',(#233));
#59=EDGE_LOOP('',(#234,#235,#236,#237));
#60=EDGE_LOOP('',(#238,#239,#240,#241));
#61=EDGE_LOOP('',(#242,#243,#244,#245,#246));
#62=EDGE_LOOP('',(#247,#248,#249,#250,#251,#252));
#63=EDGE_LOOP('',(#253,#254,#255,#256,#257));
#64=EDGE_LOOP('',(#258,#259,#260,#261));
#65=EDGE_LOOP('',(#262,#263,#264,#265));
#66=EDGE_LOOP('',(#266,#267,#268,#269));
#67=EDGE_LOOP('',(#270,#271,#272,#273));
#68=EDGE_LOOP('',(#274,#275,#276,#277,#278));
#69=EDGE_LOOP('',(#279,#280,#281,#282,#283));
#70=EDGE_LOOP('',(#284));
#71=EDGE_LOOP('',(#285));
#72=EDGE_LOOP('',(#286,#287,#288,#289));
#73=EDGE_LOOP('',(#290,#291,#292));
#74=CIRCLE('',#337,5.5);
#75=CIRCLE('',#339,5.5);
#76=CIRCLE('',#341,8.00000000001343);
#77=CIRCLE('',#342,8.00000000001343);
#78=CIRCLE('',#344,8.);
#79=CIRCLE('',#345,8.);
#80=CIRCLE('',#347,6.255);
#81=CIRCLE('',#349,6.255);
#82=CIRCLE('',#351,10.);
#83=CIRCLE('',#353,11.);
#84=CIRCLE('',#355,11.);
#85=CIRCLE('',#357,9.5);
#86=CIRCLE('',#358,9.5);
#87=CIRCLE('',#359,1.5);
#88=CIRCLE('',#361,9.5);
#89=CIRCLE('',#362,9.5);
#90=CIRCLE('',#364,9.48576951546);
#91=CIRCLE('',#366,9.325);
#92=CIRCLE('',#367,1.2);
#93=CIRCLE('',#369,9.325);
#94=CIRCLE('',#371,9.48576951546);
#95=CIRCLE('',#372,1.2);
#96=CIRCLE('',#374,9.525);
#97=CIRCLE('',#376,9.525);
#98=CIRCLE('',#377,9.525);
#99=CIRCLE('',#379,8.525);
#100=CIRCLE('',#381,6.5);
#101=CIRCLE('',#383,6.5);
#102=LINE('',#505,#118);
#103=LINE('',#509,#119);
#104=LINE('',#513,#120);
#105=LINE('',#519,#121);
#106=LINE('',#526,#122);
#107=LINE('',#530,#123);
#108=LINE('',#537,#124);
#109=LINE('',#541,#125);
#110=LINE('',#550,#126);
#111=LINE('',#556,#127);
#112=LINE('',#565,#128);
#113=LINE('',#573,#129);
#114=LINE('',#578,#130);
#115=LINE('',#582,#131);
#116=LINE('',#589,#132);
#117=LINE('',#593,#133);
#118=VECTOR('',#389,1.);
#119=VECTOR('',#394,5.5);
#120=VECTOR('',#399,5.5);
#121=VECTOR('',#406,8.);
#122=VECTOR('',#415,6.255);
#123=VECTOR('',#420,6.255);
#124=VECTOR('',#429,10.);
#125=VECTOR('',#434,11.);
#126=VECTOR('',#445,9.5);
#127=VECTOR('',#452,9.48576951546);
#128=VECTOR('',#465,9.325);
#129=VECTOR('',#476,9.48576951546);
#130=VECTOR('',#481,9.525);
#131=VECTOR('',#486,1.);
#132=VECTOR('',#495,6.5);
#133=VECTOR('',#500,1.);
#134=VERTEX_POINT('',#503);
#135=VERTEX_POINT('',#504);
#136=VERTEX_POINT('',#508);
#137=VERTEX_POINT('',#512);
#138=VERTEX_POINT('',#514);
#139=VERTEX_POINT('',#518);
#140=VERTEX_POINT('',#520);
#141=VERTEX_POINT('',#524);
#142=VERTEX_POINT('',#528);
#143=VERTEX_POINT('',#532);
#144=VERTEX_POINT('',#535);
#145=VERTEX_POINT('',#539);
#146=VERTEX_POINT('',#543);
#147=VERTEX_POINT('',#544);
#148=VERTEX_POINT('',#549);
#149=VERTEX_POINT('',#551);
#150=VERTEX_POINT('',#555);
#151=VERTEX_POINT('',#559);
#152=VERTEX_POINT('',#563);
#153=VERTEX_POINT('',#567);
#154=VERTEX_POINT('',#571);
#155=VERTEX_POINT('',#575);
#156=VERTEX_POINT('',#576);
#157=VERTEX_POINT('',#581);
#158=VERTEX_POINT('',#585);
#159=VERTEX_POINT('',#588);
#160=VERTEX_POINT('',#592);
#161=EDGE_CURVE('',#134,#135,#102,.T.);
#162=EDGE_CURVE('',#135,#135,#74,.T.);
#163=EDGE_CURVE('',#135,#136,#103,.T.);
#164=EDGE_CURVE('',#136,#136,#75,.T.);
#165=EDGE_CURVE('',#136,#137,#104,.T.);
#166=EDGE_CURVE('',#137,#138,#76,.T.);
#167=EDGE_CURVE('',#138,#137,#77,.T.);
#168=EDGE_CURVE('',#138,#139,#105,.T.);
#169=EDGE_CURVE('',#139,#140,#78,.T.);
#170=EDGE_CURVE('',#140,#139,#79,.T.);
#171=EDGE_CURVE('',#141,#141,#80,.T.);
#172=EDGE_CURVE('',#141,#140,#106,.T.);
#173=EDGE_CURVE('',#142,#142,#81,.T.);
#174=EDGE_CURVE('',#142,#141,#107,.T.);
#175=EDGE_CURVE('',#143,#143,#82,.T.);
#176=EDGE_CURVE('',#144,#144,#83,.T.);
#177=EDGE_CURVE('',#144,#143,#108,.T.);
#178=EDGE_CURVE('',#145,#145,#84,.T.);
#179=EDGE_CURVE('',#145,#144,#109,.T.);
#180=EDGE_CURVE('',#146,#147,#85,.T.);
#181=EDGE_CURVE('',#147,#146,#86,.T.);
#182=EDGE_CURVE('',#147,#145,#87,.T.);
#183=EDGE_CURVE('',#146,#148,#110,.T.);
#184=EDGE_CURVE('',#149,#148,#88,.F.);
#185=EDGE_CURVE('',#148,#149,#89,.F.);
#186=EDGE_CURVE('',#149,#150,#111,.T.);
#187=EDGE_CURVE('',#150,#150,#90,.F.);
#188=EDGE_CURVE('',#151,#151,#91,.T.);
#189=EDGE_CURVE('',#151,#150,#92,.T.);
#190=EDGE_CURVE('',#152,#152,#93,.T.);
#191=EDGE_CURVE('',#152,#151,#112,.T.);
#192=EDGE_CURVE('',#153,#153,#94,.T.);
#193=EDGE_CURVE('',#153,#152,#95,.T.);
#194=EDGE_CURVE('',#154,#154,#96,.T.);
#195=EDGE_CURVE('',#154,#153,#113,.T.);
#196=EDGE_CURVE('',#155,#156,#97,.T.);
#197=EDGE_CURVE('',#155,#154,#114,.T.);
#198=EDGE_CURVE('',#156,#155,#98,.T.);
#199=EDGE_CURVE('',#156,#157,#115,.T.);
#200=EDGE_CURVE('',#157,#157,#99,.T.);
#201=EDGE_CURVE('',#158,#158,#100,.T.);
#202=EDGE_CURVE('',#158,#159,#116,.T.);
#203=EDGE_CURVE('',#159,#159,#101,.T.);
#204=EDGE_CURVE('',#160,#159,#117,.T.);
#205=ORIENTED_EDGE('',*,*,#161,.T.);
#206=ORIENTED_EDGE('',*,*,#162,.T.);
#207=ORIENTED_EDGE('',*,*,#161,.F.);
#208=ORIENTED_EDGE('',*,*,#162,.F.);
#209=ORIENTED_EDGE('',*,*,#163,.T.);
#210=ORIENTED_EDGE('',*,*,#164,.T.);
#211=ORIENTED_EDGE('',*,*,#163,.F.);
#212=ORIENTED_EDGE('',*,*,#164,.F.);
#213=ORIENTED_EDGE('',*,*,#165,.T.);
#214=ORIENTED_EDGE('',*,*,#166,.T.);
#215=ORIENTED_EDGE('',*,*,#167,.T.);
#216=ORIENTED_EDGE('',*,*,#165,.F.);
#217=ORIENTED_EDGE('',*,*,#167,.F.);
#218=ORIENTED_EDGE('',*,*,#168,.T.);
#219=ORIENTED_EDGE('',*,*,#169,.T.);
#220=ORIENTED_EDGE('',*,*,#170,.T.);
#221=ORIENTED_EDGE('',*,*,#168,.F.);
#222=ORIENTED_EDGE('',*,*,#166,.F.);
#223=ORIENTED_EDGE('',*,*,#171,.F.);
#224=ORIENTED_EDGE('',*,*,#172,.T.);
#225=ORIENTED_EDGE('',*,*,#169,.F.);
#226=ORIENTED_EDGE('',*,*,#170,.F.);
#227=ORIENTED_EDGE('',*,*,#172,.F.);
#228=ORIENTED_EDGE('',*,*,#173,.F.);
#229=ORIENTED_EDGE('',*,*,#174,.T.);
#230=ORIENTED_EDGE('',*,*,#171,.T.);
#231=ORIENTED_EDGE('',*,*,#174,.F.);
#232=ORIENTED_EDGE('',*,*,#175,.F.);
#233=ORIENTED_EDGE('',*,*,#173,.T.);
#234=ORIENTED_EDGE('',*,*,#176,.F.);
#235=ORIENTED_EDGE('',*,*,#177,.T.);
#236=ORIENTED_EDGE('',*,*,#175,.T.);
#237=ORIENTED_EDGE('',*,*,#177,.F.);
#238=ORIENTED_EDGE('',*,*,#178,.F.);
#239=ORIENTED_EDGE('',*,*,#179,.T.);
#240=ORIENTED_EDGE('',*,*,#176,.T.);
#241=ORIENTED_EDGE('',*,*,#179,.F.);
#242=ORIENTED_EDGE('',*,*,#180,.F.);
#243=ORIENTED_EDGE('',*,*,#181,.F.);
#244=ORIENTED_EDGE('',*,*,#182,.T.);
#245=ORIENTED_EDGE('',*,*,#178,.T.);
#246=ORIENTED_EDGE('',*,*,#182,.F.);
#247=ORIENTED_EDGE('',*,*,#180,.T.);
#248=ORIENTED_EDGE('',*,*,#181,.T.);
#249=ORIENTED_EDGE('',*,*,#183,.T.);
#250=ORIENTED_EDGE('',*,*,#184,.F.);
#251=ORIENTED_EDGE('',*,*,#185,.F.);
#252=ORIENTED_EDGE('',*,*,#183,.F.);
#253=ORIENTED_EDGE('',*,*,#184,.T.);
#254=ORIENTED_EDGE('',*,*,#185,.T.);
#255=ORIENTED_EDGE('',*,*,#186,.T.);
#256=ORIENTED_EDGE('',*,*,#187,.F.);
#257=ORIENTED_EDGE('',*,*,#186,.F.);
#258=ORIENTED_EDGE('',*,*,#188,.F.);
#259=ORIENTED_EDGE('',*,*,#189,.T.);
#260=ORIENTED_EDGE('',*,*,#187,.T.);
#261=ORIENTED_EDGE('',*,*,#189,.F.);
#262=ORIENTED_EDGE('',*,*,#190,.F.);
#263=ORIENTED_EDGE('',*,*,#191,.T.);
#264=ORIENTED_EDGE('',*,*,#188,.T.);
#265=ORIENTED_EDGE('',*,*,#191,.F.);
#266=ORIENTED_EDGE('',*,*,#192,.F.);
#267=ORIENTED_EDGE('',*,*,#193,.T.);
#268=ORIENTED_EDGE('',*,*,#190,.T.);
#269=ORIENTED_EDGE('',*,*,#193,.F.);
#270=ORIENTED_EDGE('',*,*,#194,.F.);
#271=ORIENTED_EDGE('',*,*,#195,.T.);
#272=ORIENTED_EDGE('',*,*,#192,.T.);
#273=ORIENTED_EDGE('',*,*,#195,.F.);
#274=ORIENTED_EDGE('',*,*,#196,.F.);
#275=ORIENTED_EDGE('',*,*,#197,.T.);
#276=ORIENTED_EDGE('',*,*,#194,.T.);
#277=ORIENTED_EDGE('',*,*,#197,.F.);
#278=ORIENTED_EDGE('',*,*,#198,.F.);
#279=ORIENTED_EDGE('',*,*,#196,.T.);
#280=ORIENTED_EDGE('',*,*,#199,.T.);
#281=ORIENTED_EDGE('',*,*,#200,.F.);
#282=ORIENTED_EDGE('',*,*,#199,.F.);
#283=ORIENTED_EDGE('',*,*,#198,.T.);
#284=ORIENTED_EDGE('',*,*,#200,.T.);
#285=ORIENTED_EDGE('',*,*,#201,.F.);
#286=ORIENTED_EDGE('',*,*,#201,.T.);
#287=ORIENTED_EDGE('',*,*,#202,.T.);
#288=ORIENTED_EDGE('',*,*,#203,.T.);
#289=ORIENTED_EDGE('',*,*,#202,.F.);
#290=ORIENTED_EDGE('',*,*,#204,.T.);
#291=ORIENTED_EDGE('',*,*,#203,.F.);
#292=ORIENTED_EDGE('',*,*,#204,.F.);
#293=CONICAL_SURFACE('',#336,1.,1.2217304764);
#294=CONICAL_SURFACE('',#340,5.5,0.13962634016);
#295=CONICAL_SURFACE('',#346,6.255,0.523598775598);
#296=CONICAL_SURFACE('',#352,10.,0.785398163397);
#297=CONICAL_SURFACE('',#363,9.48576951546,0.523598775598);
#298=CONICAL_SURFACE('',#373,9.48576951546,0.523598775598);
#299=CONICAL_SURFACE('',#378,1.,0.785398163397);
#300=CONICAL_SURFACE('',#384,1.,0.785398163397);
#301=ADVANCED_FACE('',(#30),#293,.F.);
#302=ADVANCED_FACE('',(#31),#22,.F.);
#303=ADVANCED_FACE('',(#32),#294,.F.);
#304=ADVANCED_FACE('',(#33),#23,.F.);
#305=ADVANCED_FACE('',(#34),#295,.F.);
#306=ADVANCED_FACE('',(#35),#24,.F.);
#307=ADVANCED_FACE('',(#36,#18),#20,.F.);
#308=ADVANCED_FACE('',(#37),#296,.T.);
#309=ADVANCED_FACE('',(#38),#25,.T.);
#310=ADVANCED_FACE('',(#39),#15,.T.);
#311=ADVANCED_FACE('',(#40),#26,.T.);
#312=ADVANCED_FACE('',(#41),#297,.T.);
#313=ADVANCED_FACE('',(#42),#16,.F.);
#314=ADVANCED_FACE('',(#43),#27,.T.);
#315=ADVANCED_FACE('',(#44),#17,.F.);
#316=ADVANCED_FACE('',(#45),#298,.T.);
#317=ADVANCED_FACE('',(#46),#28,.T.);
#318=ADVANCED_FACE('',(#47),#299,.T.);
#319=ADVANCED_FACE('',(#48,#19),#21,.T.);
#320=ADVANCED_FACE('',(#49),#29,.F.);
#321=ADVANCED_FACE('',(#50),#300,.F.);
#322=CLOSED_SHELL('',(#301,#302,#303,#304,#305,#306,#307,#308,#309,#310,
#311,#312,#313,#314,#315,#316,#317,#318,#319,#320,#321));
#323=DERIVED_UNIT_ELEMENT(#325,1.);
#324=DERIVED_UNIT_ELEMENT(#599,-3.);
#325=(
MASS_UNIT()
NAMED_UNIT(*)
SI_UNIT(.KILO.,.GRAM.)
);
#326=DERIVED_UNIT((#323,#324));
#327=MEASURE_REPRESENTATION_ITEM('density measure',
POSITIVE_RATIO_MEASURE(7850.),#326);
#328=PROPERTY_DEFINITION_REPRESENTATION(#333,#330);
#329=PROPERTY_DEFINITION_REPRESENTATION(#334,#331);
#330=REPRESENTATION('material name',(#332),#596);
#331=REPRESENTATION('density',(#327),#596);
#332=DESCRIPTIVE_REPRESENTATION_ITEM('Steel','Steel');
#333=PROPERTY_DEFINITION('material property','material name',#606);
#334=PROPERTY_DEFINITION('material property','density of part',#606);
#335=AXIS2_PLACEMENT_3D('',#501,#385,#386);
#336=AXIS2_PLACEMENT_3D('',#502,#387,#388);
#337=AXIS2_PLACEMENT_3D('',#506,#390,#391);
#338=AXIS2_PLACEMENT_3D('',#507,#392,#393);
#339=AXIS2_PLACEMENT_3D('',#510,#395,#396);
#340=AXIS2_PLACEMENT_3D('',#511,#397,#398);
#341=AXIS2_PLACEMENT_3D('',#515,#400,#401);
#342=AXIS2_PLACEMENT_3D('',#516,#402,#403);
#343=AXIS2_PLACEMENT_3D('',#517,#404,#405);
#344=AXIS2_PLACEMENT_3D('',#521,#407,#408);
#345=AXIS2_PLACEMENT_3D('',#522,#409,#410);
#346=AXIS2_PLACEMENT_3D('',#523,#411,#412);
#347=AXIS2_PLACEMENT_3D('',#525,#413,#414);
#348=AXIS2_PLACEMENT_3D('',#527,#416,#417);
#349=AXIS2_PLACEMENT_3D('',#529,#418,#419);
#350=AXIS2_PLACEMENT_3D('',#531,#421,#422);
#351=AXIS2_PLACEMENT_3D('',#533,#423,#424);
#352=AXIS2_PLACEMENT_3D('',#534,#425,#426);
#353=AXIS2_PLACEMENT_3D('',#536,#427,#428);
#354=AXIS2_PLACEMENT_3D('',#538,#430,#431);
#355=AXIS2_PLACEMENT_3D('',#540,#432,#433);
#356=AXIS2_PLACEMENT_3D('',#542,#435,#436);
#357=AXIS2_PLACEMENT_3D('',#545,#437,#438);
#358=AXIS2_PLACEMENT_3D('',#546,#439,#440);
#359=AXIS2_PLACEMENT_3D('',#547,#441,#442);
#360=AXIS2_PLACEMENT_3D('',#548,#443,#444);
#361=AXIS2_PLACEMENT_3D('',#552,#446,#447);
#362=AXIS2_PLACEMENT_3D('',#553,#448,#449);
#363=AXIS2_PLACEMENT_3D('',#554,#450,#451);
#364=AXIS2_PLACEMENT_3D('',#557,#453,#454);
#365=AXIS2_PLACEMENT_3D('',#558,#455,#456);
#366=AXIS2_PLACEMENT_3D('',#560,#457,#458);
#367=AXIS2_PLACEMENT_3D('',#561,#459,#460);
#368=AXIS2_PLACEMENT_3D('',#562,#461,#462);
#369=AXIS2_PLACEMENT_3D('',#564,#463,#464);
#370=AXIS2_PLACEMENT_3D('',#566,#466,#467);
#371=AXIS2_PLACEMENT_3D('',#568,#468,#469);
#372=AXIS2_PLACEMENT_3D('',#569,#470,#471);
#373=AXIS2_PLACEMENT_3D('',#570,#472,#473);
#374=AXIS2_PLACEMENT_3D('',#572,#474,#475);
#375=AXIS2_PLACEMENT_3D('',#574,#477,#478);
#376=AXIS2_PLACEMENT_3D('',#577,#479,#480);
#377=AXIS2_PLACEMENT_3D('',#579,#482,#483);
#378=AXIS2_PLACEMENT_3D('',#580,#484,#485);
#379=AXIS2_PLACEMENT_3D('',#583,#487,#488);
#380=AXIS2_PLACEMENT_3D('',#584,#489,#490);
#381=AXIS2_PLACEMENT_3D('',#586,#491,#492);
#382=AXIS2_PLACEMENT_3D('',#587,#493,#494);
#383=AXIS2_PLACEMENT_3D('',#590,#496,#497);
#384=AXIS2_PLACEMENT_3D('',#591,#498,#499);
#385=DIRECTION('axis',(0.,0.,1.));
#386=DIRECTION('refdir',(1.,0.,0.));
#387=DIRECTION('center_axis',(-3.74939945665E-33,6.12323399574E-17,-1.));
#388=DIRECTION('ref_axis',(0.479425538604204,0.877582561890373,5.37364337703573E-17));
#389=DIRECTION('',(-0.450512640843331,-0.824657857539967,-0.342020143321939));
#390=DIRECTION('center_axis',(-3.74939945665E-33,6.12323399574E-17,-1.));
#391=DIRECTION('ref_axis',(1.,0.,-3.74939945665E-33));
#392=DIRECTION('center_axis',(-3.74939945665E-33,6.12323399574E-17,-1.));
#393=DIRECTION('ref_axis',(0.479425538604204,0.877582561890372,5.37364337703573E-17));
#394=DIRECTION('',(-3.74939945665E-33,6.12323399574E-17,-1.));
#395=DIRECTION('center_axis',(-3.74939945665E-33,6.12323399574E-17,-1.));
#396=DIRECTION('ref_axis',(1.,0.,-3.74939945665E-33));
#397=DIRECTION('center_axis',(-3.74939945665E-33,6.12323399574E-17,-1.));
#398=DIRECTION('ref_axis',(0.479425538604204,0.877582561890372,5.37364337703573E-17));
#399=DIRECTION('',(-0.066723138887212,-0.122135886487156,-0.990268068741507));
#400=DIRECTION('center_axis',(0.,0.,-1.));
#401=DIRECTION('ref_axis',(0.479425538604011,0.877582561890478,0.));
#402=DIRECTION('center_axis',(0.,0.,-1.));
#403=DIRECTION('ref_axis',(0.479425538604011,0.877582561890478,0.));
#404=DIRECTION('center_axis',(-3.74939945665E-33,6.12323399574E-17,-1.));
#405=DIRECTION('ref_axis',(-0.479425538604204,-0.877582561890373,-5.37364337703573E-17));
#406=DIRECTION('',(-3.74939945665E-33,6.12323399574E-17,-1.));
#407=DIRECTION('center_axis',(-3.74939945665E-33,6.12323399574E-17,-1.));
#408=DIRECTION('ref_axis',(1.,0.,-3.74939945665E-33));
#409=DIRECTION('center_axis',(-3.74939945665E-33,6.12323399574E-17,-1.));
#410=DIRECTION('ref_axis',(1.,0.,-3.74939945665E-33));
#411=DIRECTION('center_axis',(3.74939945665E-33,-6.12323399574E-17,1.));
#412=DIRECTION('ref_axis',(-0.479425538604204,0.877582561890372,5.37364337703573E-17));
#413=DIRECTION('center_axis',(3.74939945665E-33,-6.12323399574E-17,1.));
#414=DIRECTION('ref_axis',(-1.,0.,3.74939945665E-33));
#415=DIRECTION('',(0.239712769301978,-0.438791280944959,0.866025403784588));
#416=DIRECTION('center_axis',(3.74939945665E-33,-6.12323399574E-17,1.));
#417=DIRECTION('ref_axis',(-0.479425538604204,0.877582561890372,5.37364337703573E-17));
#418=DIRECTION('center_axis',(3.74939945665E-33,-6.12323399574E-17,1.));
#419=DIRECTION('ref_axis',(-1.,0.,3.74939945665E-33));
#420=DIRECTION('',(3.74939945665E-33,-6.12323399574E-17,1.));
#421=DIRECTION('center_axis',(3.74939945665E-33,-6.12323399574E-17,1.));
#422=DIRECTION('ref_axis',(1.,6.12323399574E-17,8.60484838249458E-45));
#423=DIRECTION('center_axis',(3.74939945665E-33,-6.12323399574E-17,1.));
#424=DIRECTION('ref_axis',(-1.,0.,3.74939945665E-33));
#425=DIRECTION('center_axis',(3.74939945665E-33,-6.12323399574E-17,1.));
#426=DIRECTION('ref_axis',(-0.479425538604204,0.877582561890372,5.37364337703573E-17));
#427=DIRECTION('center_axis',(3.74939945665E-33,-6.12323399574E-17,1.));
#428=DIRECTION('ref_axis',(-1.,0.,3.74939945665E-33));
#429=DIRECTION('',(-0.339005049420893,0.620544580563467,-0.707106781186865));
#430=DIRECTION('center_axis',(3.74939945665E-33,-6.12323399574E-17,1.));
#431=DIRECTION('ref_axis',(-0.479425538604204,0.877582561890372,5.37364337703573E-17));
#432=DIRECTION('center_axis',(3.74939945665E-33,-6.12323399574E-17,1.));
#433=DIRECTION('ref_axis',(-1.,0.,3.74939945665E-33));
#434=DIRECTION('',(-3.74939945665E-33,6.12323399574E-17,-1.));
#435=DIRECTION('center_axis',(3.74939945665E-33,-6.12323399574E-17,1.));
#436=DIRECTION('ref_axis',(-0.479425538604204,0.877582561890372,0.));
#437=DIRECTION('center_axis',(3.74939945665E-33,-6.12323399574E-17,1.));
#438=DIRECTION('ref_axis',(-1.,0.,3.74939945665E-33));
#439=DIRECTION('center_axis',(3.74939945665E-33,-6.12323399574E-17,1.));
#440=DIRECTION('ref_axis',(-1.,0.,3.74939945665E-33));
#441=DIRECTION('center_axis',(0.877582561890372,0.479425538604204,2.93563475640722E-17));
#442=DIRECTION('ref_axis',(0.479425538604204,-0.877582561890372,0.));
#443=DIRECTION('center_axis',(-3.74939945665E-33,6.12323399574E-17,-1.));
#444=DIRECTION('ref_axis',(0.479425538604204,0.877582561890372,5.37364337703573E-17));
#445=DIRECTION('',(3.74939945665E-33,-6.12323399574E-17,1.));
#446=DIRECTION('center_axis',(-3.74939945665E-33,6.12323399574E-17,-1.));
#447=DIRECTION('ref_axis',(1.,0.,-3.74939945665E-33));
#448=DIRECTION('center_axis',(-3.74939945665E-33,6.12323399574E-17,-1.));
#449=DIRECTION('ref_axis',(1.,0.,-3.74939945665E-33));
#450=DIRECTION('center_axis',(-3.74939945665E-33,6.12323399574E-17,-1.));
#451=DIRECTION('ref_axis',(-0.479425538604203,0.877582561890373,5.37364337703573E-17));
#452=DIRECTION('',(-0.239712769301978,0.438791280944959,0.866025403784588));
#453=DIRECTION('center_axis',(-3.74939945665E-33,6.12323399574E-17,-1.));
#454=DIRECTION('ref_axis',(1.,0.,-3.74939945665E-33));
#455=DIRECTION('center_axis',(3.74939945665E-33,-6.12323399574E-17,1.));
#456=DIRECTION('ref_axis',(-0.479425538604204,0.877582561890372,0.));
#457=DIRECTION('center_axis',(3.74939945665E-33,-6.12323399574E-17,1.));
#458=DIRECTION('ref_axis',(-1.,0.,3.74939945665E-33));
#459=DIRECTION('center_axis',(-0.877582561890372,-0.479425538604204,-2.93563475640722E-17));
#460=DIRECTION('ref_axis',(0.479425538604204,-0.877582561890372,0.));
#461=DIRECTION('center_axis',(3.74939945665E-33,-6.12323399574E-17,1.));
#462=DIRECTION('ref_axis',(-0.479425538604204,0.877582561890372,5.37364337703573E-17));
#463=DIRECTION('center_axis',(3.74939945665E-33,-6.12323399574E-17,1.));
#464=DIRECTION('ref_axis',(-1.,0.,3.74939945665E-33));
#465=DIRECTION('',(-3.74939945665E-33,6.12323399574E-17,-1.));
#466=DIRECTION('center_axis',(3.74939945665E-33,-6.12323399574E-17,1.));
#467=DIRECTION('ref_axis',(-0.479425538604204,0.877582561890372,0.));
#468=DIRECTION('center_axis',(3.74939945665E-33,-6.12323399574E-17,1.));
#469=DIRECTION('ref_axis',(-1.,0.,3.74939945665E-33));
#470=DIRECTION('center_axis',(-0.877582561890372,-0.479425538604204,-2.93563475640722E-17));
#471=DIRECTION('ref_axis',(0.479425538604204,-0.877582561890372,0.));
#472=DIRECTION('center_axis',(3.74939945665E-33,-6.12323399574E-17,1.));
#473=DIRECTION('ref_axis',(-0.479425538604203,0.877582561890373,5.37364337703573E-17));
#474=DIRECTION('center_axis',(3.74939945665E-33,-6.12323399574E-17,1.));
#475=DIRECTION('ref_axis',(-1.,0.,3.74939945665E-33));
#476=DIRECTION('',(-0.239712769301978,0.438791280944959,-0.866025403784588));
#477=DIRECTION('center_axis',(3.74939945665E-33,-6.12323399574E-17,1.));
#478=DIRECTION('ref_axis',(-0.479425538604204,0.877582561890373,5.37364337703573E-17));
#479=DIRECTION('center_axis',(3.74939945665E-33,-6.12323399574E-17,1.));
#480=DIRECTION('ref_axis',(-1.,0.,3.74939945665E-33));
#481=DIRECTION('',(-3.74939945665E-33,6.12323399574E-17,-1.));
#482=DIRECTION('center_axis',(3.74939945665E-33,-6.12323399574E-17,1.));
#483=DIRECTION('ref_axis',(-1.,0.,3.74939945665E-33));
#484=DIRECTION('center_axis',(8.881784197E-16,-6.04901474818E-16,-1.));
#485=DIRECTION('ref_axis',(0.261037628141948,-0.965328626268809,8.15776697759388E-16));
#486=DIRECTION('',(0.184581477003941,-0.682590417707863,0.707106781186865));
#487=DIRECTION('center_axis',(-6.59800245959E-16,-2.39651053094E-16,1.));
#488=DIRECTION('ref_axis',(-1.,0.,-6.59800245959E-16));
#489=DIRECTION('center_axis',(3.74939945665E-33,-6.12323399574E-17,1.));
#490=DIRECTION('ref_axis',(1.,6.12323399574E-17,8.60484838249458E-45));
#491=DIRECTION('center_axis',(3.74939945665E-33,-6.12323399574E-17,1.));
#492=DIRECTION('ref_axis',(-1.,0.,3.74939945665E-33));
#493=DIRECTION('center_axis',(-3.74939945665E-33,6.12323399574E-17,-1.));
#494=DIRECTION('ref_axis',(0.479425538604204,0.877582561890372,5.37364337703573E-17));
#495=DIRECTION('',(-3.74939945665E-33,6.12323399574E-17,-1.));
#496=DIRECTION('center_axis',(-3.74939945665E-33,6.12323399574E-17,-1.));
#497=DIRECTION('ref_axis',(1.,0.,-3.74939945665E-33));
#498=DIRECTION('center_axis',(3.74939945665E-33,-6.12323399574E-17,1.));
#499=DIRECTION('ref_axis',(0.479425538604204,0.877582561890373,5.37364337703573E-17));
#500=DIRECTION('',(-0.339005049420893,-0.620544580563467,0.707106781186865));
#501=CARTESIAN_POINT('',(0.,0.,0.));
#502=CARTESIAN_POINT('Origin',(-4.55224627238578E-31,7.43438234689869E-15,
-54.8621339457617));
#503=CARTESIAN_POINT('',(-4.5385995744E-31,7.41209559778E-15,-54.4981637115));
#504=CARTESIAN_POINT('',(-2.63684046233246,-4.82670409041414,-56.4999999999465));
#505=CARTESIAN_POINT('',(-0.479425538604204,-0.877582561890365,-54.8621339457617));
#506=CARTESIAN_POINT('Origin',(-4.61365641332E-31,7.53467271794E-15,-56.5));
#507=CARTESIAN_POINT('Origin',(-3.8258690862E-31,6.24811837808E-15,-64.4990818558));
#508=CARTESIAN_POINT('',(-2.63684046232,-4.8267040904,-60.711575694));
#509=CARTESIAN_POINT('',(-2.63684046232312,-4.82670409039704,-64.4990818558));
#510=CARTESIAN_POINT('Origin',(-3.68386035075E-31,6.01620051319E-15,-60.711575694));
#511=CARTESIAN_POINT('Origin',(-3.68386035075E-31,6.01620051319E-15,-60.711575694));
#512=CARTESIAN_POINT('',(-3.83540430884007,-7.02066049513475,-78.4999999999975));
#513=CARTESIAN_POINT('',(-2.63684046232312,-4.82670409039704,-60.711575694));
#514=CARTESIAN_POINT('',(3.83540430883,7.02066049512,-78.5));
#515=CARTESIAN_POINT('Origin',(-2.22044604925031E-15,3.33066907387547E-15,
-78.4999999999975));
#516=CARTESIAN_POINT('Origin',(-2.22044604925031E-15,3.33066907387547E-15,
-78.4999999999975));
#517=CARTESIAN_POINT('Origin',(-2.10341309519E-32,3.43513427161E-16,-84.11));
#518=CARTESIAN_POINT('',(3.83540430883363,7.02066049512298,-84.7771281292));
#519=CARTESIAN_POINT('',(3.83540430883363,7.02066049512298,-84.11));
#520=CARTESIAN_POINT('',(3.83540430883,-7.02066049512,-84.7771281292));
#521=CARTESIAN_POINT('Origin',(-2.3535460797E-32,3.84363243564E-16,-84.7771281292));
#522=CARTESIAN_POINT('Origin',(-2.3535460797E-32,3.84363243564E-16,-84.7771281292));
#523=CARTESIAN_POINT('Origin',(-3.48677531696E-32,5.69433622721E-16,-87.7995567884));
#524=CARTESIAN_POINT('',(2.99880674397,-5.48927892462,-87.7995567884));
#525=CARTESIAN_POINT('Origin',(-3.48677531696E-32,5.69433622721E-16,-87.7995567884));
#526=CARTESIAN_POINT('',(2.99880674396929,-5.48927892462428,-87.7995567884));
#527=CARTESIAN_POINT('Origin',(-3.74939945753E-33,6.12323399716E-17,-79.5000000002));
#528=CARTESIAN_POINT('',(2.99880674396929,-5.48927892462428,-88.5));
#529=CARTESIAN_POINT('Origin',(-3.74939945665E-32,6.12323399574E-16,-88.5));
#530=CARTESIAN_POINT('',(2.99880674396929,-5.48927892462428,-79.5000000002));
#531=CARTESIAN_POINT('Origin',(-6.12323399574E-16,10.,-88.5));
#532=CARTESIAN_POINT('',(4.79425538604,-8.7758256189,-88.5));
#533=CARTESIAN_POINT('Origin',(0.,0.,-88.5));
#534=CARTESIAN_POINT('Origin',(-3.74939945665E-32,6.12323399574E-16,-88.5));
#535=CARTESIAN_POINT('',(5.27368092465,-9.65340818079,-87.5));
#536=CARTESIAN_POINT('Origin',(-3.37445951099E-32,5.51091059616E-16,-87.5));
#537=CARTESIAN_POINT('',(4.79425538604204,-8.77582561890372,-88.5));
#538=CARTESIAN_POINT('Origin',(-3.74939945753E-33,6.12323399716E-17,-79.5000000002));
#539=CARTESIAN_POINT('',(5.27368092464624,-9.6534081807941,-72.));
#540=CARTESIAN_POINT('Origin',(2.43710964683E-32,-3.98010209723E-16,-72.));
#541=CARTESIAN_POINT('',(5.27368092464624,-9.6534081807941,-79.5000000002));
#542=CARTESIAN_POINT('Origin',(2.43710964683E-32,-3.98010209723E-16,-72.));
#543=CARTESIAN_POINT('',(-4.55454261674,-8.33703433796,-70.5));
#544=CARTESIAN_POINT('',(4.55454261673994,-8.33703433795854,-70.5));
#545=CARTESIAN_POINT('Origin',(2.99951956532E-32,-4.89858719659E-16,-70.5));
#546=CARTESIAN_POINT('Origin',(2.99951956532E-32,-4.89858719659E-16,-70.5));
#547=CARTESIAN_POINT('Origin',(4.55454261673993,-8.33703433795854,-72.));
#548=CARTESIAN_POINT('Origin',(-3.8258690862E-31,6.24811837808E-15,-64.4990818558));
#549=CARTESIAN_POINT('',(-4.55454261673994,-8.33703433795853,-66.4566987298));
#550=CARTESIAN_POINT('',(-4.55454261673994,-8.33703433795853,-64.4990818558));
#551=CARTESIAN_POINT('',(4.55454261674,-8.33703433796,-66.4566987298));
#552=CARTESIAN_POINT('Origin',(-3.89926796264E-31,6.36798784002E-15,-66.4566987298));
#553=CARTESIAN_POINT('Origin',(-3.89926796264E-31,6.36798784002E-15,-66.4566987298));
#554=CARTESIAN_POINT('Origin',(4.5247562145E-32,-7.38948767539E-16,-66.4320508076));
#555=CARTESIAN_POINT('',(4.54772015902,-8.32454591288,-66.4320508076));
#556=CARTESIAN_POINT('',(4.54772015902474,-8.32454591287899,-66.4320508076));
#557=CARTESIAN_POINT('Origin',(4.5247562145E-32,-7.38948767539E-16,-66.4320508076));
#558=CARTESIAN_POINT('Origin',(4.7497201819E-32,-7.75688171514E-16,-65.8320508076));
#559=CARTESIAN_POINT('',(4.4706431474842,-8.18345738962772,-65.8320508076));
#560=CARTESIAN_POINT('Origin',(4.7497201819E-32,-7.75688171514E-16,-65.8320508076));
#561=CARTESIAN_POINT('Origin',(5.04595379380924,-9.23655646389617,-65.8320508076));
#562=CARTESIAN_POINT('Origin',(5.06168926648E-32,-8.26636589424E-16,-65.));
#563=CARTESIAN_POINT('',(4.47064314748,-8.18345738963,-64.1679491924));
#564=CARTESIAN_POINT('Origin',(5.37365835106E-32,-8.77585007335E-16,-64.1679491924));
#565=CARTESIAN_POINT('',(4.4706431474842,-8.18345738962772,-65.));
#566=CARTESIAN_POINT('Origin',(5.37365835106E-32,-8.77585007335E-16,-64.1679491924));
#567=CARTESIAN_POINT('',(4.54772015902475,-8.32454591287898,-63.5679491924));
#568=CARTESIAN_POINT('Origin',(5.59862231846E-32,-9.1432441131E-16,-63.5679491924));
#569=CARTESIAN_POINT('Origin',(5.04595379380924,-9.23655646389617,-64.1679491924));
#570=CARTESIAN_POINT('Origin',(5.59862231846E-32,-9.1432441131E-16,-63.5679491924));
#571=CARTESIAN_POINT('',(4.56652825521,-8.35897390201,-63.5));
#572=CARTESIAN_POINT('Origin',(5.62409918498E-32,-9.18485099361E-16,-63.5));
#573=CARTESIAN_POINT('',(4.54772015902475,-8.32454591287899,-63.5679491924));
#574=CARTESIAN_POINT('Origin',(1.47163928674E-31,-2.40336934333E-15,-39.25));
#575=CARTESIAN_POINT('',(4.56652825521,-8.35897390201,-1.));
#576=CARTESIAN_POINT('',(-2.48638340805094,9.19475516520629,-1.00000000000429));
#577=CARTESIAN_POINT('Origin',(2.90578457891E-31,-4.7455063467E-15,-1.));
#578=CARTESIAN_POINT('',(4.56652825520504,-8.3589739020058,-39.25));
#579=CARTESIAN_POINT('Origin',(2.90578457891E-31,-4.7455063467E-15,-1.));
#580=CARTESIAN_POINT('Origin',(-4.9071857688392E-15,1.07741254090146E-15,
7.5249999999991));
#581=CARTESIAN_POINT('',(-2.22534577990911,8.2294265389379,-3.82804898890754E-12));
#582=CARTESIAN_POINT('',(-0.261037628141953,0.96532862626881,7.5249999999991));
#583=CARTESIAN_POINT('Origin',(1.7763568394E-15,-3.4744710571E-15,-7.1054273576E-15));
#584=CARTESIAN_POINT('Origin',(2.94327857347E-31,-4.80673868665E-15,0.));
#585=CARTESIAN_POINT('',(-3.11626600093,-5.70428665229,5.38891600193E-16));
#586=CARTESIAN_POINT('Origin',(2.94327857347E-31,-4.80673868665E-15,0.));
#587=CARTESIAN_POINT('Origin',(2.71831460607E-31,-4.43934464691E-15,-6.));
#588=CARTESIAN_POINT('',(-3.11626600093,-5.70428665229,-5.5));
#589=CARTESIAN_POINT('',(-3.11626600092732,-5.70428665228743,-6.));
#590=CARTESIAN_POINT('Origin',(2.73706160336E-31,-4.46996081689E-15,-5.5));
#591=CARTESIAN_POINT('Origin',(2.53084463324653E-31,-4.13318294711746E-15,
-10.9999999999991));
#592=CARTESIAN_POINT('',(2.49335063868E-31,-4.07195060716E-15,-12.));
#593=CARTESIAN_POINT('',(-0.479425538604203,-0.877582561890377,-10.9999999999991));
#594=UNCERTAINTY_MEASURE_WITH_UNIT(LENGTH_MEASURE(0.01),#598,
'DISTANCE_ACCURACY_VALUE',
'Maximum model space distance between geometric entities at asserted c
onnectivities');
#595=UNCERTAINTY_MEASURE_WITH_UNIT(LENGTH_MEASURE(0.01),#598,
'DISTANCE_ACCURACY_VALUE',
'Maximum model space distance between geometric entities at asserted c
onnectivities');
#596=(
GEOMETRIC_REPRESENTATION_CONTEXT(3)
GLOBAL_UNCERTAINTY_ASSIGNED_CONTEXT((#594))
GLOBAL_UNIT_ASSIGNED_CONTEXT((#598,#600,#601))
REPRESENTATION_CONTEXT('','3D')
);
#597=(
GEOMETRIC_REPRESENTATION_CONTEXT(3)
GLOBAL_UNCERTAINTY_ASSIGNED_CONTEXT((#595))
GLOBAL_UNIT_ASSIGNED_CONTEXT((#598,#600,#601))
REPRESENTATION_CONTEXT('','3D')
);
#598=(
LENGTH_UNIT()
NAMED_UNIT(*)
SI_UNIT(.MILLI.,.METRE.)
);
#599=(
LENGTH_UNIT()
NAMED_UNIT(*)
SI_UNIT($,.METRE.)
);
#600=(
NAMED_UNIT(*)
PLANE_ANGLE_UNIT()
SI_UNIT($,.RADIAN.)
);
#601=(
NAMED_UNIT(*)
SI_UNIT($,.STERADIAN.)
SOLID_ANGLE_UNIT()
);
#602=SHAPE_DEFINITION_REPRESENTATION(#603,#604);
#603=PRODUCT_DEFINITION_SHAPE('',$,#606);
#604=SHAPE_REPRESENTATION('',(#335),#596);
#605=PRODUCT_DEFINITION_CONTEXT('part definition',#610,'design');
#606=PRODUCT_DEFINITION('4592249-ST3 4 X2.500 ER16 MF - Basic-inch',
'4592249-ST3 4 X2.500 ER16 MF - Basic-inch',#607,#605);
#607=PRODUCT_DEFINITION_FORMATION('',$,#612);
#608=PRODUCT_RELATED_PRODUCT_CATEGORY(
'4592249-ST3 4 X2.500 ER16 MF - Basic-inch',
'4592249-ST3 4 X2.500 ER16 MF - Basic-inch',(#612));
#609=APPLICATION_PROTOCOL_DEFINITION('international standard',
'ap242_managed_model_based_3d_engineering',2011,#610);
#610=APPLICATION_CONTEXT('Managed model based 3d engineering');
#611=PRODUCT_CONTEXT('part definition',#610,'mechanical');
#612=PRODUCT('4592249-ST3 4 X2.500 ER16 MF - Basic-inch',
'4592249-ST3 4 X2.500 ER16 MF - Basic-inch',$,(#611));
#613=PRESENTATION_STYLE_ASSIGNMENT((#615));
#614=PRESENTATION_STYLE_ASSIGNMENT((#616));
#615=SURFACE_STYLE_USAGE(.BOTH.,#617);
#616=SURFACE_STYLE_USAGE(.BOTH.,#618);
#617=SURFACE_SIDE_STYLE('',(#619));
#618=SURFACE_SIDE_STYLE('',(#620));
#619=SURFACE_STYLE_FILL_AREA(#621);
#620=SURFACE_STYLE_FILL_AREA(#622);
#621=FILL_AREA_STYLE('Steel - Satin',(#623));
#622=FILL_AREA_STYLE('Opaque(128,128,128)',(#624));
#623=FILL_AREA_STYLE_COLOUR('Steel - Satin',#625);
#624=FILL_AREA_STYLE_COLOUR('Opaque(128,128,128)',#626);
#625=COLOUR_RGB('Steel - Satin',0.627450980392157,0.627450980392157,0.627450980392157);
#626=COLOUR_RGB('Opaque(128,128,128)',0.501960784313725,0.501960784313725,
0.501960784313725);
ENDSEC;
END-ISO-10303-21;
